<svg width="31" height="30" viewBox="0 0 31 30" fill="none" xmlns="http://www.w3.org/2000/svg">
<path d="M2.01056 1.73926L5.04389 2.26426L6.44827 18.9957C6.56056 20.3622 7.70243 21.4107 9.07327 21.4063H24.9822C26.2904 21.4093 27.4001 20.4468 27.5854 19.1518L28.9693 9.58801C29.1239 8.51905 28.3816 7.52738 27.3141 7.3728C27.2208 7.35967 5.53098 7.35238 5.53098 7.35238" stroke="#FF7074" stroke-width="2.5" stroke-linecap="round" stroke-linejoin="round"/>
<path d="M18.5991 12.7424H22.6431" stroke="#FF7074" stroke-width="2.5" stroke-linecap="round" stroke-linejoin="round"/>
<path fill-rule="evenodd" clip-rule="evenodd" d="M8.43347 26.4619C8.87243 26.4619 9.2268 26.8177 9.2268 27.2552C9.2268 27.6942 8.87243 28.05 8.43347 28.05C7.99451 28.05 7.64014 27.6942 7.64014 27.2552C7.64014 26.8177 7.99451 26.4619 8.43347 26.4619Z" fill="#FF7074" stroke="#FF7074" stroke-width="2.5" stroke-linecap="round" stroke-linejoin="round"/>
<path fill-rule="evenodd" clip-rule="evenodd" d="M24.8839 26.4619C25.3229 26.4619 25.6787 26.8177 25.6787 27.2552C25.6787 27.6942 25.3229 28.05 24.8839 28.05C24.445 28.05 24.0906 27.6942 24.0906 27.2552C24.0906 26.8177 24.445 26.4619 24.8839 26.4619Z" fill="#130F26" fill-opacity="0.4" stroke="#FF7074" stroke-width="2.5" stroke-linecap="round" stroke-linejoin="round"/>
</svg>
