<svg width="33" height="33" viewBox="0 0 33 33" fill="none" xmlns="http://www.w3.org/2000/svg">
<path fill-rule="evenodd" clip-rule="evenodd" d="M22 19.25C23.7716 19.2501 25.4748 19.9341 26.7544 21.1594C28.034 22.3847 28.7912 24.0567 28.8681 25.8266L28.875 26.125V27.5C28.8752 28.1938 28.6132 28.862 28.1414 29.3708C27.6697 29.8795 27.0231 30.1911 26.3312 30.2431L26.125 30.25H6.875C6.18121 30.2502 5.51297 29.9882 5.00425 29.5164C4.49552 29.0447 4.18391 28.3981 4.13188 27.7063L4.125 27.5V26.125C4.1251 24.3534 4.80912 22.6502 6.03441 21.3706C7.2597 20.091 8.93166 19.3338 10.7016 19.2569L11 19.25H22ZM22 22H11C9.94783 21.9999 8.93542 22.402 8.16989 23.1238C7.40437 23.8456 6.9436 24.8327 6.88188 25.883L6.875 26.125V27.5H26.125V26.125C26.1251 25.0728 25.7231 24.0604 25.0012 23.2949C24.2794 22.5294 23.2924 22.0686 22.242 22.0069L22 22ZM16.5 2.75C18.3234 2.75 20.072 3.47433 21.3614 4.76364C22.6507 6.05295 23.375 7.80164 23.375 9.625C23.375 11.4484 22.6507 13.197 21.3614 14.4864C20.072 15.7757 18.3234 16.5 16.5 16.5C14.6766 16.5 12.928 15.7757 11.6386 14.4864C10.3493 13.197 9.625 11.4484 9.625 9.625C9.625 7.80164 10.3493 6.05295 11.6386 4.76364C12.928 3.47433 14.6766 2.75 16.5 2.75ZM16.5 5.5C15.9583 5.5 15.4219 5.6067 14.9214 5.814C14.421 6.0213 13.9662 6.32514 13.5832 6.70819C13.2001 7.09123 12.8963 7.54596 12.689 8.04643C12.4817 8.5469 12.375 9.0833 12.375 9.625C12.375 10.1667 12.4817 10.7031 12.689 11.2036C12.8963 11.704 13.2001 12.1588 13.5832 12.5418C13.9662 12.9249 14.421 13.2287 14.9214 13.436C15.4219 13.6433 15.9583 13.75 16.5 13.75C17.594 13.75 18.6432 13.3154 19.4168 12.5418C20.1904 11.7682 20.625 10.719 20.625 9.625C20.625 8.53098 20.1904 7.48177 19.4168 6.70819C18.6432 5.9346 17.594 5.5 16.5 5.5Z" fill="#FF7074"/>
</svg>
