<svg width="35" height="35" viewBox="0 0 35 35" fill="none" xmlns="http://www.w3.org/2000/svg">
<path d="M13.3346 30.3071V25.8346C13.3346 24.7012 14.2562 23.7805 15.3977 23.7733H19.5892C20.7358 23.7733 21.6654 24.6962 21.6654 25.8346V30.2941C21.6653 31.2771 22.4642 32.076 23.4543 32.0831H26.3139C27.6494 32.0866 28.9315 31.5622 29.8771 30.6259C30.8227 29.6895 31.3541 28.418 31.3541 27.0921V14.3875C31.3541 13.3164 30.8759 12.3005 30.0484 11.6133L20.3335 3.89981C18.6353 2.55064 16.2099 2.59422 14.562 4.00352L5.05604 11.6133C4.18939 12.2802 3.67141 13.2992 3.64581 14.3875V27.0791C3.64581 29.8427 5.90241 32.0831 8.68607 32.0831H11.4804C11.9571 32.0866 12.4155 31.901 12.7538 31.5675C13.0921 31.2341 13.2824 30.7804 13.2824 30.3071H13.3346Z" fill="#FF7074"/>
</svg>
