<svg width="35" height="35" viewBox="0 0 35 35" fill="none" xmlns="http://www.w3.org/2000/svg">
<path d="M22.6042 20.4168H21.4521L21.0438 20.0231C21.9552 18.9643 22.6212 17.7171 22.9944 16.3708C23.3675 15.0246 23.4384 13.6125 23.2021 12.2356C22.5167 8.1814 19.1334 4.9439 15.05 4.44806C13.6145 4.26645 12.1564 4.41565 10.7874 4.88423C9.41832 5.35282 8.17463 6.12838 7.15145 7.15157C6.12826 8.17475 5.3527 9.41844 4.88411 10.7875C4.41552 12.1565 4.26633 13.6146 4.44794 15.0501C4.94377 19.1335 8.18127 22.5168 12.2354 23.2022C13.6123 23.4386 15.0244 23.3676 16.3707 22.9945C17.717 22.6214 18.9641 21.9553 20.0229 21.0439L20.4167 21.4522V22.6043L26.6146 28.8022C27.2125 29.4001 28.1896 29.4001 28.7875 28.8022C29.3854 28.2043 29.3854 27.2272 28.7875 26.6293L22.6042 20.4168ZM13.8542 20.4168C10.2229 20.4168 7.29169 17.4856 7.29169 13.8543C7.29169 10.2231 10.2229 7.29181 13.8542 7.29181C17.4854 7.29181 20.4167 10.2231 20.4167 13.8543C20.4167 17.4856 17.4854 20.4168 13.8542 20.4168Z" fill="#FF7074"/>
</svg>
